<?xml version="1.0" encoding="utf-8"?>
<!-- Generator: Adobe Illustrator 16.0.4, SVG Export Plug-In . SVG Version: 6.00 Build 0)  -->
<!DOCTYPE svg PUBLIC "-//W3C//DTD SVG 1.1//EN" "http://www.w3.org/Graphics/SVG/1.1/DTD/svg11.dtd">
<svg version="1.1" xmlns="http://www.w3.org/2000/svg" xmlns:xlink="http://www.w3.org/1999/xlink" x="0px" y="0px" width="400px"
	 height="399.999px" viewBox="0 0 400 399.999" enable-background="new 0 0 400 399.999" xml:space="preserve">
<symbol  id="icon-coral" viewBox="-200 -199.999 400 399.999">
	<polygon fill="none" points="200,-200 -200,-200 -200,199.999 200,199.999 	"/>
	<g>
		<path fill="#DE4F4F" d="M86.575-106.887l-241.821,256.964l256.963-241.82c4.311-4.055,4.517-10.836,0.461-15.145
			c-4.054-4.311-10.833-4.518-15.145-0.461C86.883-107.206,86.715-107.037,86.575-106.887"/>
		<path fill="#DE4F4F" d="M51.032-125.012L-131.306,72.472L66.177-109.868c4.349-4.014,4.618-10.795,0.604-15.145
			c-4.017-4.35-10.794-4.618-15.146-0.604C51.433-125.428,51.221-125.213,51.032-125.012"/>
		<path fill="#DE4F4F" d="M14.083-125.543L-107.093,5.729L24.181-115.446c2.898-2.677,3.077-7.198,0.402-10.098
			c-2.677-2.897-7.195-3.082-10.097-0.402C14.349-125.821,14.208-125.676,14.083-125.543"/>
		<path fill="#DE4F4F" d="M115.612-34.685l-126.51,136.607L125.71-24.586c2.896-2.684,3.067-7.203,0.387-10.099
			c-2.682-2.894-7.201-3.067-10.098-0.386C115.87-34.949,115.732-34.813,115.612-34.685"/>
		<path fill="#DE4F4F" d="M104.697-72.93L-78.434,125.344L119.842-57.785c4.349-4.017,4.619-10.796,0.603-15.145
			c-4.016-4.35-10.797-4.617-15.146-0.602C105.095-73.343,104.882-73.131,104.697-72.93"/>
		<path fill="#DE4F4F" d="M-23.691-114.782l-57.646,62.695l62.692-57.65c1.454-1.334,1.548-3.596,0.215-5.045
			c-1.338-1.454-3.598-1.549-5.049-0.215C-23.552-114.929-23.624-114.855-23.691-114.782"/>
		<path fill="#DE4F4F" d="M111.093,10.702L53.443,73.397l62.696-57.646c1.451-1.336,1.547-3.598,0.211-5.049
			c-1.335-1.451-3.595-1.547-5.049-0.21C111.229,10.557,111.157,10.635,111.093,10.702"/>
	</g>
</symbol>
<g id="Layer_1">
</g>
<g id="Layer_2">
	
		<use xlink:href="#icon-coral"  width="400" height="399.999" x="-200" y="-199.999" transform="matrix(1 0 0 -1 200 199.9995)" overflow="visible"/>
</g>
</svg>
