<svg xmlns="http://www.w3.org/2000/svg" xmlns:xlink="http://www.w3.org/1999/xlink" width="588.571" height="151.793" viewBox="0 0 588.571 151.793"><symbol id="a" viewBox="-321.482 -139.034 781.483 278.068"><path fill="none" d="M460-139.034h-781.482v278.068H460z"/><g fill="#DE4F4F"><path d="M196.754-36.42L67.384 101.054l137.472-129.37c2.305-2.168 2.416-5.795.246-8.102-2.17-2.304-5.795-2.414-8.102-.244-.08.075-.17.166-.246.245M177.74-46.114L80.19 59.536l105.65-97.55c2.326-2.146 2.47-5.773.324-8.1-2.148-2.327-5.777-2.473-8.104-.323-.108.1-.222.215-.323.323M157.973-46.398L93.147 23.83l70.227-64.827c1.553-1.432 1.648-3.85.217-5.4-1.43-1.55-3.85-1.65-5.4-.218-.074.07-.15.145-.217.217M212.29 2.21L144.61 75.29 217.69 7.61c1.55-1.434 1.643-3.853.207-5.4-1.434-1.55-3.85-1.642-5.4-.207-.07.063-.143.138-.207.206M206.45-18.252L108.48 87.82l106.07-97.97c2.327-2.148 2.472-5.774.323-8.102-2.148-2.326-5.775-2.47-8.102-.32-.11.1-.22.213-.32.32M137.764-40.643l-30.84 33.54 33.54-30.84c.776-.715.827-1.924.114-2.7-.715-.777-1.924-.827-2.7-.114-.04.037-.08.076-.114.114M209.87 26.49l-30.838 33.54 33.54-30.84c.776-.715.827-1.923.112-2.7s-1.924-.827-2.7-.114c-.038.037-.08.077-.114.114"/></g><path fill="#333" d="M-321.482 46.32h21.975l24.358-39.186 24.36 39.185h21.976v-92.67h-20.124v60.5l-26.08-39.583h-.527l-25.816 39.185V-46.35h-20.122zM-193.842 46.32h69.767V28.182h-49.644v-18.8h43.688V-8.752h-43.687v-19.46h50.305V-46.35h-70.427zM-70.328 27.52h-28.196v18.8h76.78v-18.8H-49.94v-73.87H-70.33zM7.115 46.32H76.88V28.182H27.24v-18.8h43.686V-8.752H27.238v-19.46h50.305V-46.35H7.115zM241.432 46.32h42.36c11.737 0 20.74-3.135 27.005-9.4 5.297-5.295 7.943-12.357 7.943-21.18v-.267c0-7.503-1.832-13.614-5.492-18.336-3.664-4.723-8.453-8.186-14.365-10.393l22.64-33.095h-23.83L277.834-16.7h-16.018V-46.35h-20.385v92.67zM282.47 1.307c5.03 0 8.89 1.192 11.583 3.574 2.69 2.384 4.037 5.56 4.037 9.533v.265c0 4.412-1.414 7.72-4.238 9.93-2.824 2.204-6.75 3.31-11.78 3.31h-20.255V1.307h20.652z"/></symbol><g fill="#333"><path d="M373.492 101.544V50.85h16.188c15.733 0 25.613 11.477 25.613 25.386 0 14.06-9.88 25.31-25.613 25.31h-16.188zm37.242-25.31c0-11.856-7.6-21.433-21.054-21.433h-11.856v42.792h11.856c13.378 0 21.054-9.5 21.054-21.357zM430.172 76.235c0-14.82 9.73-26.222 24.625-26.222 14.82 0 24.626 11.4 24.626 26.222 0 14.82-9.805 26.22-24.626 26.22-14.897 0-24.625-11.4-24.625-26.22zm44.69 0c0-12.845-7.904-22.27-20.065-22.27-12.236 0-20.064 9.425-20.064 22.27 0 12.77 7.828 22.27 20.064 22.27 12.16 0 20.065-9.5 20.065-22.27zM494.27 76.235c0-15.58 11.324-26.222 25.69-26.222 8.056 0 14.212 3.572 18.468 8.97l-3.648 2.355c-3.19-4.408-8.74-7.373-14.82-7.373-11.856 0-21.13 9.045-21.13 22.27 0 13.072 9.273 22.27 21.13 22.27 6.08 0 11.63-2.965 14.82-7.373l3.725 2.28c-4.56 5.548-10.488 9.044-18.545 9.044-14.366 0-25.69-10.64-25.69-26.22zM552.014 94.4l2.812-3.27c3.268 3.726 8.588 7.374 15.885 7.374 10.337 0 13.302-5.777 13.302-10.11 0-14.895-30.402-7.144-30.402-24.853 0-8.283 7.45-13.527 16.646-13.527 7.524 0 13.3 2.66 17.177 7.145l-2.888 3.192c-3.648-4.408-8.817-6.385-14.518-6.385-6.764 0-11.856 3.877-11.856 9.35 0 12.996 30.402 5.852 30.402 24.776 0 6.537-4.332 14.365-18.013 14.365-8.362 0-14.67-3.42-18.546-8.056z"/></g><use xlink:href="#a" width="781.483" height="278.068" x="-321.482" y="-139.034" transform="matrix(.546 0 0 -.546 175.492 75.897)" overflow="visible"/></svg>